# xmcd CD database file
#
# Track frame offsets:
#	150
#	13796
#	30226
#	45776
#	59979
#	81175
#	92574
#	109556
#	125772
#	143694
#	159015
#
# Disc length: 2355 seconds
#
# Revision: 0
# Processed by: cddbd v1.5.2PL0 Copyright (c) Steve Scherf et al.
# Submitted via: CDex 2.12
#
DISCID=7e09310b
DTITLE=Alan Kelly - Mosaic
DYEAR=2000
DGENRE=Celtique
TTITLE0=Eva's Reel
TTITLE1=The Wing Flapper
TTITLE2=Salamanca Samba
TTITLE3=Earl Grey
TTITLE4=Leavong Haines
TTITLE5=Micho Russel's
TTITLE6=Hanley's Tweed
TTITLE7=Reminiscing
TTITLE8=Martin Wynne's
TTITLE9=The Colliers
TTITLE10=Flowers of the Forest
EXTD=YEAR: 2000
EXTT0=
EXTT1=
EXTT2=
EXTT3=
EXTT4=
EXTT5=
EXTT6=
EXTT7=
EXTT8=
EXTT9=
EXTT10=
PLAYORDER=
